<?xml version="1.0" encoding="UTF-8"?>
<svg version="1.1" xmlns="http://www.w3.org/2000/svg" width="1024" height="1024">
<path d="M0 0 C337.92 0 675.84 0 1024 0 C1024 337.92 1024 675.84 1024 1024 C686.08 1024 348.16 1024 0 1024 C0 686.08 0 348.16 0 0 Z " fill="#FEFEFE" transform="translate(0,0)"/>
<path d="M0 0 C0.70253906 0.00386719 1.40507812 0.00773438 2.12890625 0.01171875 C2.83144531 0.00785156 3.53398438 0.00398437 4.2578125 0 C9.50229247 0.01010497 9.50229247 0.01010497 10.62890625 1.13671875 C10.70210246 3.83326729 10.72133162 6.50363333 10.69140625 9.19921875 C10.68689453 9.95783203 10.68238281 10.71644531 10.67773438 11.49804688 C10.66591305 13.37763746 10.64797703 15.25718774 10.62890625 17.13671875 C11.67691406 17.12511719 12.72492188 17.11351562 13.8046875 17.1015625 C15.18359197 17.0921822 16.56249836 17.08308225 17.94140625 17.07421875 C18.63169922 17.06583984 19.32199219 17.05746094 20.03320312 17.04882812 C23.17720875 17.03363969 25.62310644 17.13478548 28.62890625 18.13671875 C28.68269851 21.09529284 28.72247718 24.05289596 28.75390625 27.01171875 C28.77066406 27.85347656 28.78742188 28.69523437 28.8046875 29.5625 C28.81113281 30.36816406 28.81757812 31.17382812 28.82421875 32.00390625 C28.83469238 32.74753418 28.84516602 33.49116211 28.85595703 34.25732422 C28.62890625 36.13671875 28.62890625 36.13671875 26.62890625 38.13671875 C23.88405032 38.2817957 21.24410082 38.32324298 18.50390625 38.26171875 C17.74980469 38.25269531 16.99570312 38.24367187 16.21875 38.234375 C14.35533371 38.21078745 12.49208032 38.17491594 10.62890625 38.13671875 C10.4931847 40.5344662 10.39453757 42.9244712 10.31640625 45.32421875 C10.25356445 46.33452148 10.25356445 46.33452148 10.18945312 47.36523438 C10.09286268 51.32544258 10.45213263 52.92143998 12.99609375 56.01953125 C14.64274367 57.34369187 16.32909697 58.62146617 18.06640625 59.82421875 C24.22386136 65.38094653 27.14653646 72.19090197 27.9375 80.30078125 C28.3740756 92.02217454 24.43584657 99.64093075 16.62890625 108.13671875 C17.28890625 108.13671875 17.94890625 108.13671875 18.62890625 108.13671875 C20.00336839 109.94379848 21.26134377 111.8056815 22.5078125 113.703125 C25.51904373 115.73834022 27.58371015 115.18221893 31.08862305 114.63696289 C35.52069105 113.76417987 39.88726191 112.7300841 44.25390625 111.57421875 C45.25317139 111.3124585 46.25243652 111.05069824 47.28198242 110.78100586 C54.28988578 108.89301686 61.11496367 106.65699936 67.94140625 104.19921875 C76.2931687 101.19572989 84.68658815 98.58335657 93.25390625 96.26171875 C94.29587158 95.97562744 95.33783691 95.68953613 96.41137695 95.39477539 C107.77842045 92.38460215 118.92736004 90.75708879 130.69140625 90.82421875 C132.25991333 90.83267822 132.25991333 90.83267822 133.86010742 90.84130859 C148.78223107 91.07655943 160.41314704 94.91899998 171.44140625 105.26171875 C183.94496179 118.40831429 185.2335979 132.81721607 184.9375 150.11328125 C184.64319962 157.94093859 183.20373526 164.72830354 180.62890625 172.13671875 C180.29874512 173.09408936 180.29874512 173.09408936 179.96191406 174.07080078 C175.08697032 187.8287487 167.6914462 200.41730108 160.62890625 213.13671875 C148.93399299 234.31018889 142.66394231 251.85643029 139.62890625 276.13671875 C48.54890625 276.13671875 -42.53109375 276.13671875 -136.37109375 276.13671875 C-136.86609375 268.71171875 -136.86609375 268.71171875 -137.37109375 261.13671875 C-138.0234173 257.79732395 -138.68864418 254.69143845 -139.62109375 251.44921875 C-139.84506836 250.64307129 -140.06904297 249.83692383 -140.29980469 249.00634766 C-144.54655227 234.1486873 -152.03972128 221.00684401 -159.4453125 207.54296875 C-159.97181396 206.58374512 -160.49831543 205.62452148 -161.04077148 204.63623047 C-162.06339046 202.77614768 -163.08998754 200.91824406 -164.12133789 199.06298828 C-176.47558098 176.63809602 -185.5152911 151.91162664 -179.37109375 126.13671875 C-175.32593169 112.84314181 -167.32404432 103.16882146 -155.37109375 96.13671875 C-127.83973332 83.50597494 -94.7825181 93.72494117 -67.80859375 103.01171875 C-58.64042736 106.12315982 -49.45680325 109.12233119 -40.12109375 111.69921875 C-39.27216553 111.93817871 -38.4232373 112.17713867 -37.54858398 112.42333984 C-27.54441929 115.5048558 -27.54441929 115.5048558 -17.86328125 113.703125 C-17.32960938 113.04183594 -16.7959375 112.38054687 -16.24609375 111.69921875 C-15.40691406 110.71115234 -15.40691406 110.71115234 -14.55078125 109.703125 C-14.16148437 109.18621094 -13.7721875 108.66929687 -13.37109375 108.13671875 C-14.71017556 105.2278999 -16.2596385 102.96212325 -18.30859375 100.51171875 C-23.69417479 93.35734394 -25.13460345 86.00119266 -24.06640625 77.16015625 C-21.98616589 68.1146167 -16.82530291 61.47554423 -9.37109375 56.13671875 C-8.71109375 55.80671875 -8.05109375 55.47671875 -7.37109375 55.13671875 C-6.04687387 51.63877945 -6.27163846 48.08224798 -6.30859375 44.38671875 C-6.31761719 43.21625 -6.32664062 42.04578125 -6.3359375 40.83984375 C-6.34753906 39.9478125 -6.35914063 39.05578125 -6.37109375 38.13671875 C-7.50289062 38.15992188 -8.6346875 38.183125 -9.80078125 38.20703125 C-11.2825455 38.22578776 -12.76431687 38.24398809 -14.24609375 38.26171875 C-14.99246094 38.27847656 -15.73882812 38.29523438 -16.5078125 38.3125 C-18.46303836 38.33011465 -20.41851396 38.23992064 -22.37109375 38.13671875 C-24.37109375 36.13671875 -24.37109375 36.13671875 -24.61401367 34.27319336 C-24.60990479 33.53593018 -24.6057959 32.79866699 -24.6015625 32.0390625 C-24.59962891 31.23791016 -24.59769531 30.43675781 -24.59570312 29.61132812 C-24.58345703 28.77408203 -24.57121094 27.93683594 -24.55859375 27.07421875 C-24.55762695 25.81254883 -24.55762695 25.81254883 -24.55664062 24.52539062 C-24.51132559 18.27695059 -24.51132559 18.27695059 -23.37109375 17.13671875 C-20.50841808 17.06346707 -17.67037475 17.0443367 -14.80859375 17.07421875 C-14.00228516 17.07873047 -13.19597656 17.08324219 -12.36523438 17.08789062 C-10.36715619 17.09971357 -8.36911592 17.11764961 -6.37109375 17.13671875 C-6.38269531 15.99332031 -6.39429688 14.84992188 -6.40625 13.671875 C-6.41562663 12.18099121 -6.42472696 10.69010566 -6.43359375 9.19921875 C-6.44197266 8.44447266 -6.45035156 7.68972656 -6.45898438 6.91210938 C-6.46761816 4.98677562 -6.42333708 3.06136294 -6.37109375 1.13671875 C-4.61549433 -0.61888067 -2.33526933 0.00449956 0 0 Z " fill="#1B61AB" transform="translate(510.37109375,154.86328125)"/>
<path d="M0 0 C0.69206543 0.21350098 1.38413086 0.42700195 2.09716797 0.64697266 C11.85240239 3.65879163 21.35528473 7.21741504 30.8125 11.0625 C32.36142944 11.67967896 32.36142944 11.67967896 33.94165039 12.30932617 C39.17013554 14.47982836 43.54488736 16.31091856 47 21 C47.71484375 23.55078125 47.71484375 23.55078125 47.9375 26.3125 C48.62183747 31.5981923 49.96754242 36.18361066 51.875 41.125 C52.14159424 41.81577637 52.40818848 42.50655273 52.68286133 43.21826172 C53.79253667 46.04737612 54.93700501 48.85394654 56.140625 51.64453125 C64.48484367 71.08126284 68.38472812 96.749467 60.5546875 116.7890625 C56.78893878 124.56656363 51.94762578 132.02618711 44 136 C36.76205476 136.9927043 31.38903402 136.05682656 25.30078125 131.98828125 C20.62959948 127.95155541 16.95573325 122.86719975 15 117 C15 114.69 15 112.38 15 110 C21.27 110 27.54 110 34 110 C32.68 104.72 31.36 99.44 30 94 C24.91499924 93.751124 24.91499924 93.751124 19.82910156 93.52197266 C16.06848117 93.3126283 13.16160903 93.08325664 10 91 C9.08691406 89.21240234 9.08691406 89.21240234 8.515625 87.0859375 C8.22606934 86.05799072 8.22606934 86.05799072 7.93066406 85.00927734 C7.70604492 84.13996582 7.48142578 83.2706543 7.25 82.375 C6.5075 79.61125 5.765 76.8475 5 74 C-0.94 73.67 -6.88 73.34 -13 73 C-11.35747334 78.50553121 -11.35747334 78.50553121 -9.70898438 84.00927734 C-9.50595703 84.6945752 -9.30292969 85.37987305 -9.09375 86.0859375 C-8.88427734 86.7876709 -8.67480469 87.4894043 -8.45898438 88.21240234 C-8 90 -8 90 -8 92 C-15.75493514 92.09928082 -23.31068715 92.06059488 -31 91 C-30.7168444 93.08450717 -30.42314331 95.16758367 -30.125 97.25 C-29.88136719 98.99023438 -29.88136719 98.99023438 -29.6328125 100.765625 C-29.05833435 103.70184663 -28.67972892 105.56374452 -27 108 C-24.7561354 108.62380796 -24.7561354 108.62380796 -22.1328125 108.58203125 C-21.16472656 108.62779297 -20.19664062 108.67355469 -19.19921875 108.72070312 C-17.15786248 108.78165849 -15.116133 108.83123057 -13.07421875 108.86914062 C-5.84298441 109.23886509 -5.84298441 109.23886509 -3.4284668 111.41894531 C-1.11986101 115.15096 -0.4766163 118.73920588 -0.5625 123.125 C-0.56378906 124.11757813 -0.56507813 125.11015625 -0.56640625 126.1328125 C-1.06546864 129.43291877 -2.03089413 131.32201602 -4 134 C-8.10736079 136.73824053 -11.17685812 136.71453954 -16 136 C-38.78404524 128.12403375 -52.9322054 99.53112634 -63.63330078 79.53515625 C-65.10662357 76.80221881 -66.61387619 74.08937649 -68.12109375 71.375 C-77.81966121 53.68302645 -86.41587512 34.22893677 -81.40893555 13.56005859 C-78.85186427 5.33193402 -73.8758291 -0.68125882 -66.34375 -4.96875 C-45.02347575 -14.34967067 -20.98382926 -6.68134522 0 0 Z " fill="#FDFDFE" transform="translate(432,273)"/>
<path d="M0 0 C6.19983337 5.76763344 8.72828414 12.5946396 9.23828125 20.86328125 C10.18045611 57.94309648 -15.46092641 98.12964681 -40.1105957 124.56640625 C-46.03110281 130.67521274 -52.49292743 136.05406656 -61.3125 136.5 C-66.10202644 135.85057269 -68.62948503 134.37051497 -72 131 C-73.59203286 124.63186854 -73.14919292 117.66255269 -69.77124023 111.90600586 C-67.48145029 109.4419962 -66.2104334 109.40187977 -62.89453125 109.171875 C-61.42016602 109.05585938 -61.42016602 109.05585938 -59.91601562 108.9375 C-58.89185547 108.875625 -57.86769531 108.81375 -56.8125 108.75 C-55.25885742 108.63398438 -55.25885742 108.63398438 -53.67382812 108.515625 C-51.11659744 108.32707343 -48.55939469 108.15590221 -46 108 C-45.50950768 106.59672591 -45.02501614 105.19135367 -44.54296875 103.78515625 C-44.27250732 103.00277588 -44.0020459 102.22039551 -43.72338867 101.41430664 C-42.68531878 97.94975275 -42.32699848 94.5969833 -42 91 C-43.19625 91.165 -44.3925 91.33 -45.625 91.5 C-52.07041997 92.23219971 -58.52295265 92.08292095 -65 92 C-63.64583062 85.54165371 -61.95326547 79.30372038 -60 73 C-65.94 73.33 -71.88 73.66 -78 74 C-79.71844195 79.15532585 -81.0643948 84.21426409 -82.31640625 89.48828125 C-83 92 -83 92 -84 93 C-85.4887186 93.08669432 -86.981445 93.10703494 -88.47265625 93.09765625 C-89.37177734 93.09443359 -90.27089844 93.09121094 -91.19726562 93.08789062 C-92.61555664 93.07532227 -92.61555664 93.07532227 -94.0625 93.0625 C-95.01189453 93.05798828 -95.96128906 93.05347656 -96.93945312 93.04882812 C-99.29303065 93.0370011 -101.64648477 93.02052025 -104 93 C-104.14381104 93.69029297 -104.28762207 94.38058594 -104.43579102 95.09179688 C-104.77880859 96.73828125 -105.12182617 98.38476562 -105.46484375 100.03125 C-106.11979848 103.66457553 -106.54207794 107.33662348 -107 111 C-100.73 111 -94.46 111 -88 111 C-89.17341629 121.56074662 -91.76401637 125.81758438 -99.7109375 132.421875 C-104.42660827 135.84795417 -108.49925306 136.8290054 -114.31640625 136.5546875 C-120.97523768 135.17833515 -125.07874325 130.23612261 -129 125 C-140.26019059 106.77445924 -138.7960674 87.26841945 -134.37109375 67.23828125 C-132.35071095 58.97137953 -129.08642 51.13768937 -125.90576172 43.26318359 C-122.0537707 33.77743132 -122.0537707 33.77743132 -121.25 23.75 C-121.0625 21.3046875 -121.0625 21.3046875 -120 19 C-115.08807376 15.38279345 -109.64174782 13.24279381 -104 11 C-103.18289551 10.66226562 -102.36579102 10.32453125 -101.52392578 9.9765625 C-89.36979366 4.96513193 -77.01569041 1.06649293 -64.33300781 -2.359375 C-62.21033603 -2.94224344 -60.10030553 -3.55431589 -57.9921875 -4.1875 C-38.50567234 -10.0120408 -17.29289915 -13.06503961 0 0 Z " fill="#FDFDFE" transform="translate(666,273)"/>
<path d="M0 0 C93.39 0 186.78 0 283 0 C283 7.92 283 15.84 283 24 C189.61 24 96.22 24 0 24 C0 16.08 0 8.16 0 0 Z " fill="#1D63AC" transform="translate(371,450)"/>
<path d="M0 0 C10.90562097 8.97574481 15.09888558 21.64169852 17.33984375 35.23828125 C18.17001909 49.79530937 16.10553228 64.09305923 6.3828125 75.54296875 C-1.51769038 82.80457494 -11.42795044 86.79896972 -22.1796875 86.484375 C-35.31034447 85.1816484 -45.15524887 79.97317685 -53.68359375 69.953125 C-62.76378876 57.48131564 -64.98117751 41.46302895 -62.97265625 26.42578125 C-60.91614035 15.4308139 -56.65886082 5.45372078 -47.421875 -1.4296875 C-33.03115004 -9.90505401 -13.89250867 -9.20047197 0 0 Z " fill="#FDFEFE" transform="translate(283.66015625,566.76171875)"/>
<path d="M0 0 C6.08312305 -0.09951 12.16576338 -0.17177017 18.24951172 -0.21972656 C20.31535098 -0.23973625 22.38113437 -0.26695283 24.44677734 -0.30175781 C27.43080503 -0.35074716 30.41407846 -0.37307564 33.3984375 -0.390625 C34.76468765 -0.42159271 34.76468765 -0.42159271 36.15853882 -0.45318604 C43.94641704 -0.45585931 50.34790472 1.61819873 56.875 5.875 C61.55304861 10.55304861 63.27655779 13.71025808 63.5 20.375 C63.14530095 30.14030831 59.56221034 34.93366902 52.609375 41.53125 C52.07828125 42.0159375 51.5471875 42.500625 51 43 C51.7734375 43.40089844 52.546875 43.80179688 53.34375 44.21484375 C62.18131619 49.03831738 70.5383303 54.81238107 73.59765625 64.91015625 C75.31537818 73.83230415 73.60308581 81.37086289 68.71484375 89.0078125 C63.59747887 95.5933907 56.11027966 99.3987009 48 101 C44.41498893 101.26075914 40.84677695 101.23354465 37.25390625 101.1953125 C35.7372361 101.19106766 35.7372361 101.19106766 34.18992615 101.18673706 C30.98066048 101.17559889 27.77168042 101.15050597 24.5625 101.125 C22.37825926 101.11496198 20.19401411 101.10583757 18.00976562 101.09765625 C12.67308068 101.07568043 7.33656076 101.04226656 2 101 C2 100.34 2 99.68 2 99 C3.134375 98.566875 4.26875 98.13375 5.4375 97.6875 C6.613125 97.130625 7.78875 96.57375 9 96 C13.55255586 82.34233241 11.15320536 64.41122579 11.13037109 50.22412109 C11.12499247 46.24442774 11.13035438 42.26484627 11.13671875 38.28515625 C11.13605817 35.71614559 11.13477743 33.147135 11.1328125 30.578125 C11.13483673 29.40799866 11.13686096 28.23787231 11.13894653 27.0322876 C11.11732644 19.31356973 10.69541773 11.6869682 10 4 C7.03 3.67 4.06 3.34 1 3 C0.67 2.01 0.34 1.02 0 0 Z " fill="#1D62AC" transform="translate(682,556)"/>
<path d="M0 0 C6.75841864 -0.12778523 13.51652073 -0.2147603 20.27587891 -0.2746582 C22.57059369 -0.29965334 24.86523007 -0.3336611 27.15966797 -0.37719727 C54.36454475 -0.88011474 54.36454475 -0.88011474 65.0625 8.25 C69.29483263 12.99847075 70.69707435 18.22318153 71.375 24.4375 C70.63781364 31.44077038 68.40422723 37.83996977 65 44 C64.34 44 63.68 44 63 44 C62.79375 44.721875 62.5875 45.44375 62.375 46.1875 C60.54751837 49.9255306 58.29561194 51.49246917 55 54 C73.61522011 81.90150551 73.61522011 81.90150551 100.875 97.625 C101.90625 97.74875 102.9375 97.8725 104 98 C104 98.99 104 99.98 104 101 C83.27659574 101.57446809 83.27659574 101.57446809 75 98 C75 97.34 75 96.68 75 96 C74.27941406 95.79761719 73.55882812 95.59523438 72.81640625 95.38671875 C69.17621732 93.59439271 67.28553879 91.00371396 64.9375 87.8125 C63.97880654 86.55006537 63.01913479 85.28837319 62.05859375 84.02734375 C61.56214355 83.36976074 61.06569336 82.71217773 60.55419922 82.03466797 C57.93025524 78.59955187 55.21237713 75.24041073 52.5 71.875 C50.66056394 69.5881256 48.82682218 67.29696024 47 65 C46.3915625 64.23945312 45.783125 63.47890625 45.15625 62.6953125 C44 61 44 61 44 59 C37.4 58.67 30.8 58.34 24 58 C24.05106755 62.91269851 24.11401017 67.82223536 24.20751953 72.73388672 C24.23571718 74.40403011 24.25693779 76.07430665 24.27099609 77.74462891 C24.29244337 80.14815372 24.33909845 82.55007983 24.390625 84.953125 C24.39185364 85.69806213 24.39308228 86.44299927 24.39434814 87.21051025 C24.4930332 90.7158962 24.73226975 92.65346095 26.90429688 95.46484375 C29.18317453 97.13418004 30.46031176 97.56402078 33.25 97.75 C34.4875 97.8325 35.725 97.915 37 98 C36.505 99.485 36.505 99.485 36 101 C24.78 101 13.56 101 2 101 C2 100.01 2 99.02 2 98 C3.423125 97.7834375 3.423125 97.7834375 4.875 97.5625 C8.07606429 96.39368578 8.07606429 96.39368578 8.73357773 94.1748724 C9.77619563 88.91935771 10.28881518 83.92863579 10.25878906 78.57446289 C10.2622937 77.78632202 10.26579834 76.99818115 10.26940918 76.18615723 C10.27812006 73.61489725 10.27241948 71.04391837 10.265625 68.47265625 C10.26697377 66.6742701 10.26891607 64.8758843 10.27142334 63.07749939 C10.27435933 59.32628881 10.27012271 55.575174 10.26074219 51.82397461 C10.2492907 47.00964619 10.25595253 42.1955394 10.26788712 37.38121891 C10.2750979 33.67614557 10.2728224 29.97112524 10.26763153 26.26605034 C10.26629584 24.48978079 10.26793993 22.71350647 10.27259064 20.93724251 C10.2776493 18.46462243 10.2699578 15.99236808 10.25878906 13.51977539 C10.26283752 12.78369553 10.26688599 12.04761566 10.27105713 11.28923035 C10.36035752 7.1926151 10.36035752 7.1926151 8 4 C5.34462628 3.43479997 2.70855287 3.26211802 0 3 C0 2.01 0 1.02 0 0 Z " fill="#1E63AC" transform="translate(546,724)"/>
<path d="M0 0 C1.90753174 0.18382263 1.90753174 0.18382263 4 1 C5.31365967 2.74183655 5.31365967 2.74183655 6.47949219 5.05883789 C6.92923401 5.9359996 7.37897583 6.81316132 7.84234619 7.71690369 C8.3223407 8.68817703 8.80233521 9.65945038 9.296875 10.66015625 C9.81312439 11.6774733 10.32937378 12.69479034 10.86126709 13.74293518 C12.5880367 17.15515762 14.29412799 20.57728783 16 24 C17.22874802 26.44504405 18.46129209 28.88817024 19.69335938 31.33154297 C23.23647269 38.36713189 26.75420415 45.41525398 30.26727295 52.46588135 C31.93575438 55.81331043 33.60667105 59.15952356 35.27734375 62.50585938 C38.5205268 69.00276178 41.76114969 75.50093634 45 82 C47.67708402 78.54077274 49.65213471 74.93899351 51.56640625 71.01953125 C51.91030899 70.32342239 52.25421173 69.62731354 52.60853577 68.91011047 C53.74356457 66.60894384 54.87212886 64.30468239 56 62 C56.79272362 60.38586449 57.58553101 58.77177012 58.37841797 57.15771484 C60.47646643 52.88133719 62.56674387 48.60120869 64.65405273 44.31958008 C65.93140088 41.70000801 67.21074619 39.08141796 68.49023438 36.46289062 C69.33594113 34.72916844 70.18164428 32.99544449 71.02734375 31.26171875 C71.44108246 30.41648651 71.85482117 29.57125427 72.28109741 28.70040894 C74.40788394 24.33945715 76.48581058 19.9629616 78.49267578 15.54541016 C78.8941835 14.66979935 79.29569122 13.79418854 79.70936584 12.89204407 C80.47055272 11.22587833 81.22148204 9.55497546 81.96043396 7.87882996 C82.30163773 7.13482437 82.64284149 6.39081879 82.99438477 5.62426758 C83.43247215 4.64348991 83.43247215 4.64348991 83.87940979 3.64289856 C85.28643749 1.58005367 86.721718 0.94002289 89 0 C91.41240274 3.82919187 91.64327631 7.95038753 92.09741211 12.34521484 C92.19042099 13.18472183 92.28342987 14.02422882 92.3792572 14.88917542 C92.58007269 16.70961103 92.77742834 18.53043088 92.97172356 20.35157394 C93.2800299 23.23606891 93.59849971 26.11927686 93.91981506 29.00234985 C94.83134684 37.19889072 95.72362792 45.39750096 96.61108398 53.59667969 C97.1549035 58.6144336 97.70988933 63.63085557 98.27142525 68.64665604 C98.4827504 70.55589268 98.68964405 72.46562533 98.89198112 74.37583542 C99.1753306 77.05048067 99.47275262 79.72322454 99.77319336 82.39599609 C99.85277283 83.18165451 99.93235229 83.96731293 100.01434326 84.77677917 C100.55220968 89.40414345 101.55687497 92.93405043 104 97 C107.40359944 99.64724401 111.83689531 99.58368953 116 100 C116 100.99 116 101.98 116 103 C111.93751511 103.02909769 107.87505714 103.04683174 103.8125 103.0625 C102.66201172 103.07087891 101.51152344 103.07925781 100.32617188 103.08789062 C99.21435547 103.09111328 98.10253906 103.09433594 96.95703125 103.09765625 C95.93585205 103.10289307 94.91467285 103.10812988 93.86254883 103.11352539 C91.13098384 103.00519467 88.65830626 102.61706868 86 102 C86.02827881 101.23333008 86.05655762 100.46666016 86.08569336 99.67675781 C86.31924826 87.50452676 85.10512382 75.49313435 83.91870117 63.38916016 C83.55929102 59.71721519 83.2114734 56.04430186 82.86523438 52.37109375 C82.6412949 50.03378989 82.41670948 47.6965478 82.19140625 45.359375 C82.08719864 44.26260437 81.98299103 43.16583374 81.87562561 42.03582764 C81.77559738 41.02336975 81.67556915 40.01091187 81.57250977 38.96777344 C81.44260399 37.63332184 81.44260399 37.63332184 81.31007385 36.27191162 C81.049579 33.84034586 81.049579 33.84034586 80 31 C79.57404541 31.87696533 79.14809082 32.75393066 78.70922852 33.6574707 C78.42312714 34.24647156 78.13702576 34.83547241 77.84225464 35.44232178 C77.18625133 36.79298162 76.53035127 38.14369162 75.87454224 39.4944458 C74.00767624 43.33916928 72.13889991 47.1829463 70.2668457 51.02514648 C66.61493658 58.52515401 62.97548146 66.02992246 59.40229797 73.56782532 C57.87225798 76.79392952 56.33341314 80.01579698 54.79391479 83.23739624 C54.05765289 84.7846327 53.32579879 86.33397452 52.59841919 87.88540649 C51.58055241 90.05535366 50.54785624 92.21763747 49.51171875 94.37890625 C49.21443878 95.02313538 48.91715881 95.6673645 48.61087036 96.33111572 C47.29345827 99.0456058 46.35817948 100.77183837 43.78051758 102.41381836 C43.19294678 102.6072583 42.60537598 102.80069824 42 103 C36.93341945 95.87610182 32.89714661 88.3412399 28.9375 80.5625 C28.28512757 79.29004959 27.63245332 78.01775388 26.97949219 76.74560547 C24.9760843 72.83558336 22.98580819 68.91898526 21 65 C20.68194397 64.3724884 20.36388794 63.74497681 20.03619385 63.09844971 C17.9324767 58.9447971 15.83833142 54.78641518 13.75 50.625 C13.21366943 49.55709229 12.67733887 48.48918457 12.12475586 47.38891602 C9.59314635 42.31468467 7.15711416 37.24503784 5 32 C4.1295775 34.6112675 3.7645909 36.58792 3.51928711 39.29345703 C3.43927963 40.15931427 3.35927216 41.02517151 3.27684021 41.91726685 C3.19450638 42.85464691 3.11217255 43.79202698 3.02734375 44.7578125 C2.93997452 45.73426727 2.85260529 46.71072205 2.7625885 47.71676636 C2.57830479 49.79293933 2.3960237 51.86929087 2.21557617 53.94580078 C1.94275643 57.06490409 1.65828018 60.18279212 1.37304688 63.30078125 C0.34094184 74.90109951 -0.27549249 86.35427094 0 98 C2.64 98.66 5.28 99.32 8 100 C8 100.99 8 101.98 8 103 C-1.57 103 -11.14 103 -21 103 C-21 102.01 -21 101.02 -21 100 C-17.04 99.01 -17.04 99.01 -13 98 C-11.45974274 92.30978987 -10.48979677 86.79435233 -9.87084961 80.93774414 C-9.77462814 80.07011444 -9.67840668 79.20248474 -9.57926941 78.30856323 C-9.37278133 76.4400735 -9.16881547 74.57130362 -8.96714592 72.70228767 C-8.64830836 69.74776206 -8.32274622 66.79404402 -7.99549866 63.84043884 C-7.30336473 57.58179204 -6.62017645 51.32218425 -5.9375 45.0625 C-5.14262592 37.78366706 -4.34412027 30.50525484 -3.53882027 23.22756767 C-3.21772108 20.31128871 -2.90205268 17.39445461 -2.58665466 14.47755432 C-2.39126463 12.70384082 -2.19564452 10.93015264 -1.99975586 9.15649414 C-1.86960083 7.932416 -1.86960083 7.932416 -1.73681641 6.68360901 C-1.11379247 1.11379247 -1.11379247 1.11379247 0 0 Z " fill="#1F64AD" transform="translate(550,554)"/>
<path d="M0 0 C3.48682508 0.38742501 5.00977445 1.88706448 7.38305664 4.3347168 C9.36124645 6.37204621 11.37968626 8.36613906 13.3984375 10.36328125 C15.05735698 12.01295516 16.71620932 13.66269658 18.375 15.3125 C19.2 16.12912109 20.025 16.94574219 20.875 17.78710938 C24.52808459 21.4256976 28.11920593 25.06551957 31.4765625 28.98046875 C35.71791269 33.91842709 40.36534025 38.43451427 45 43 C50.33196197 48.25238044 55.54507201 53.5121683 60.41796875 59.1953125 C62.81584853 61.93067166 65.39450123 64.46416698 68 67 C72.58472158 71.46213544 76.8341483 76.14394802 81 81 C81.19747315 50.96376614 81.19747315 50.96376614 80.5625 20.9375 C80.52326416 19.84719482 80.48402832 18.75688965 80.44360352 17.63354492 C80.24482913 12.22843453 80.24482913 12.22843453 79 7 C76.70370006 5.85185003 74.92301914 5.69230191 72.375 5.4375 C71.55773437 5.35371094 70.74046875 5.26992188 69.8984375 5.18359375 C69.27195312 5.12300781 68.64546875 5.06242188 68 5 C68 4.01 68 3.02 68 2 C78.56 2 89.12 2 100 2 C99.67 2.99 99.34 3.98 99 5 C96.67793475 5.70491267 94.34406932 6.37212429 92 7 C90.30908431 10.38183138 90.81898892 14.22584467 90.79467773 17.94775391 C90.78477814 18.87463516 90.77487854 19.80151642 90.76467896 20.75648499 C90.7330118 23.82981789 90.70828592 26.90316628 90.68359375 29.9765625 C90.66302873 32.10363168 90.64203238 34.23069674 90.62062073 36.35775757 C90.56535342 41.96371116 90.5159647 47.56970192 90.46777344 53.17572021 C90.4175924 58.89322223 90.36188862 64.6106701 90.30664062 70.328125 C90.19900207 81.5520371 90.09756978 92.77599617 90 104 C86.7082733 103.26539123 85.00232418 102.41879717 82.5 100.125 C81.80003906 99.48820313 81.10007812 98.85140625 80.37890625 98.1953125 C79.59386719 97.47085938 78.80882812 96.74640625 78 96 C77.12214844 95.21367188 76.24429688 94.42734375 75.33984375 93.6171875 C69.47436881 88.32799744 63.78379501 82.885828 58.1875 77.3125 C57.57769287 76.70728516 56.96788574 76.10207031 56.33959961 75.47851562 C53.31458012 72.44321954 50.40776182 69.35484607 47.61328125 66.10546875 C43.63618169 61.50400852 39.33475683 57.26202601 35 53 C29.99770513 48.08163625 25.15366692 43.1256722 20.58105469 37.80371094 C18.37286811 35.28455059 16.02319907 32.96416648 13.625 30.625 C9.10914454 26.21828909 9.10914454 26.21828909 8 24 C7.9370785 35.34284898 8.09280814 46.67078151 8.37231445 58.01000977 C8.43767646 60.69474809 8.49728069 63.37957618 8.55664062 66.06445312 C7.78730505 82.68456148 7.78730505 82.68456148 12 98 C14.14560594 98.80247205 14.14560594 98.80247205 16.5625 99.0625 C19.00390625 99.41015625 19.00390625 99.41015625 21 100 C21.33 100.99 21.66 101.98 22 103 C11.11 103 0.22 103 -11 103 C-11 102.01 -11 101.02 -11 100 C-10.15115234 99.83564453 -10.15115234 99.83564453 -9.28515625 99.66796875 C-8.55167969 99.50941406 -7.81820312 99.35085938 -7.0625 99.1875 C-6.33160156 99.03667969 -5.60070312 98.88585937 -4.84765625 98.73046875 C-3.93306641 98.36888672 -3.93306641 98.36888672 -3 98 C-1.68442728 94.05328184 -1.83067359 90.26985781 -1.81054688 86.15405273 C-1.79810692 84.7975914 -1.79810692 84.7975914 -1.78541565 83.41372681 C-1.76801408 81.44940886 -1.75284755 79.48507015 -1.73963928 77.52071953 C-1.71862837 74.41561816 -1.69160534 71.31062141 -1.66296387 68.20558167 C-1.59309596 60.49501735 -1.533679 52.78437868 -1.47393799 45.07373047 C-1.42306509 38.55773039 -1.36826119 32.04178689 -1.30812073 25.52586555 C-1.28148162 22.46024872 -1.26070765 19.39462679 -1.2401123 16.32896423 C-1.22351471 14.45815782 -1.20664334 12.5873538 -1.18945312 10.71655273 C-1.18526871 9.85883774 -1.18108429 9.00112274 -1.17677307 8.11741638 C-1.11384574 2.22769148 -1.11384574 2.22769148 0 0 Z " fill="#2064AD" transform="translate(164,722)"/>
<path d="M0 0 C12.54 0 25.08 0 38 0 C38 0.66 38 1.32 38 2 C37.36191406 2.23074219 36.72382812 2.46148438 36.06640625 2.69921875 C35.24011719 3.02535156 34.41382813 3.35148438 33.5625 3.6875 C32.73878906 4.00074219 31.91507813 4.31398438 31.06640625 4.63671875 C28.79618432 5.81160836 28.79618432 5.81160836 28.38092041 8.18693542 C27.96225716 11.27872765 27.85800911 14.25174302 27.83886719 17.37231445 C27.82925964 18.64166336 27.8196521 19.91101227 27.80975342 21.21882629 C27.80490047 22.60030943 27.80062287 23.98179468 27.796875 25.36328125 C27.79404762 26.0668746 27.79122025 26.77046795 27.78830719 27.49538231 C27.77333374 31.22910304 27.76409641 34.96278543 27.75976562 38.6965332 C27.75432642 42.50750327 27.73039109 46.31810778 27.70179367 50.12896442 C27.68292248 53.09686712 27.67794861 56.06468672 27.67642975 59.03264427 C27.67345038 60.43452103 27.66558719 61.83639807 27.65224457 63.23821449 C27.521574 78.04029971 28.28430742 94.67198213 39 106 C45.61713896 111.78999659 52.98248418 113.48094664 61.625 114.375 C71.8917529 113.23424968 81.36429385 109.11030751 88 101 C96.69293307 85.76465041 95.17108314 66.31231523 95.13037109 49.34008789 C95.12502789 46.70127565 95.13034304 44.06263514 95.13671875 41.42382812 C95.14128035 32.90683049 95.01973148 24.40276869 94.6171875 15.89453125 C94.58682404 15.14096848 94.55646057 14.3874057 94.525177 13.61100769 C94.32371348 9.93465769 94.08822034 8.1323305 92 5 C89.58392583 4.20201782 89.58392583 4.20201782 86.875 3.8125 C85.96492188 3.65394531 85.05484375 3.49539063 84.1171875 3.33203125 C83.41851562 3.22246094 82.71984375 3.11289062 82 3 C82.33 2.01 82.66 1.02 83 0 C94.22 0 105.44 0 117 0 C117 0.99 117 1.98 117 3 C115.329375 3.185625 115.329375 3.185625 113.625 3.375 C109.96896323 3.6465813 109.96896323 3.6465813 108 6 C107.02603723 9.59765619 106.85732414 13.04710044 106.81054688 16.76147461 C106.79382935 17.89713364 106.77711182 19.03279266 106.7598877 20.2028656 C106.74631226 21.42369339 106.73273682 22.64452118 106.71875 23.90234375 C106.70034058 25.17163223 106.68193115 26.44092072 106.66296387 27.74867249 C106.60426891 31.81156914 106.55140134 35.87450661 106.5 39.9375 C106.44856636 43.96835561 106.3951346 47.99915597 106.33703613 52.02992249 C106.3009417 54.53543517 106.26839646 57.04100258 106.2401123 59.5466156 C105.73248213 94.89250702 105.73248213 94.89250702 94 107 C93.35289063 107.68578125 92.70578125 108.3715625 92.0390625 109.078125 C82.12380672 118.74281475 70.6497375 121.2471765 57.17895508 121.17626953 C45.39981215 121.00156462 35.53834651 118.79719854 26.484375 110.76953125 C14.37614764 98.16013554 12.72429655 83.84263241 12.66447449 67.02608109 C12.65606421 64.73852906 12.63545783 62.4513537 12.61193848 60.16390991 C12.5560284 54.49318511 12.52027646 48.82236948 12.48431396 43.15148926 C12.45302108 38.3338121 12.41383547 33.5163257 12.36405945 28.69880295 C12.34408269 26.45148868 12.33569565 24.20432392 12.32775879 21.9569397 C12.31478576 20.57757014 12.30126536 19.19820558 12.28710938 17.81884766 C12.27981812 16.61958649 12.27252686 15.42032532 12.26501465 14.1847229 C12.00197256 11.02370453 11.42481491 8.8193631 10 6 C6.73904046 3.58447442 2.9483681 3.45558093 -1 3 C-0.67 2.01 -0.34 1.02 0 0 Z " fill="#1D62AC" transform="translate(21,706)"/>
<path d="M0 0 C0.67289062 0.48210938 1.34578125 0.96421875 2.0390625 1.4609375 C2.89371094 2.06035156 2.89371094 2.06035156 3.765625 2.671875 C12.30535721 9.19710628 17.69667401 19.31761572 19.72265625 29.7578125 C21.6390134 46.12965385 19.06454136 61.71417558 9 75.19140625 C-2.72870698 88.88871246 -15.68881657 94.2709021 -33.3671875 95.6484375 C-35.59151642 95.71483538 -37.74124432 95.62441736 -39.9609375 95.4609375 C-41.00636719 95.39261719 -42.05179688 95.32429687 -43.12890625 95.25390625 C-56.92179508 93.86083979 -68.72723622 87.85311052 -77.9609375 77.4609375 C-88.13686016 63.67278255 -90.35402126 49.16544859 -88.9609375 32.4609375 C-86.68110146 18.92783074 -77.74038909 7.51349896 -66.9609375 -0.5390625 C-46.64498219 -13.53066851 -20.18661512 -13.3002113 0 0 Z M-53.9609375 -0.5390625 C-55.724375 0.2034375 -55.724375 0.2034375 -57.5234375 0.9609375 C-65.85386975 6.19213311 -70.91251822 14.76443425 -73.3125 24.078125 C-76.41178658 40.24669235 -75.04476669 56.91021338 -66.2734375 71.1484375 C-59.40700658 80.72034495 -50.4950905 86.78841505 -38.8515625 89.0703125 C-28.52842276 90.46533138 -18.22964077 88.81528692 -9.5234375 82.7109375 C-0.88789842 75.39975631 3.31770648 65.87600959 5.8515625 54.9609375 C5.944375 53.2284375 5.944375 53.2284375 6.0390625 51.4609375 C6.131875 50.11902344 6.131875 50.11902344 6.2265625 48.75 C6.8377902 33.27829882 2.87736713 18.81750959 -7.3359375 7.06640625 C-15.2317984 -0.73455247 -25.27109175 -4.01831362 -36.2109375 -4.0390625 C-42.48952805 -3.90732288 -48.16937123 -3.0026392 -53.9609375 -0.5390625 Z " fill="#1F64AD" transform="translate(294.9609375,563.5390625)"/>
<path d="M0 0 C3.86376953 0.79882812 3.86376953 0.79882812 5.08984375 2.609375 C5.36957031 3.31578125 5.64929688 4.0221875 5.9375 4.75 C6.4325 5.96816406 6.4325 5.96816406 6.9375 7.2109375 C7.288125 8.13132812 7.63875 9.05171875 8 10 C8.5878125 11.53527344 8.5878125 11.53527344 9.1875 13.1015625 C10.03344181 15.31687261 10.87712822 17.53304506 11.71875 19.75 C12.87237054 22.67625697 14.1132946 25.5228653 15.4375 28.375 C17.56500471 32.97041018 19.48532541 37.62201447 21.34960938 42.32983398 C25.81076355 53.58926684 30.38973706 64.80091019 35 76 C35.54503174 77.3298291 35.54503174 77.3298291 36.10107422 78.68652344 C37.01346555 80.90059307 37.94032796 83.10776261 38.875 85.3125 C39.36742187 86.48425781 39.85984375 87.65601563 40.3671875 88.86328125 C42.5628378 93.08124104 44.77666139 97.15728295 49.421875 98.91796875 C50.57429687 99.05138672 50.57429687 99.05138672 51.75 99.1875 C54.109375 99.48046875 54.109375 99.48046875 56 100 C56.33 100.99 56.66 101.98 57 103 C52.56251365 103.02896822 48.12505153 103.04678788 43.6875 103.0625 C42.42486328 103.07087891 41.16222656 103.07925781 39.86132812 103.08789062 C38.65283203 103.09111328 37.44433594 103.09433594 36.19921875 103.09765625 C34.52605591 103.10551147 34.52605591 103.10551147 32.8190918 103.11352539 C30 103 30 103 27 102 C27 101.34 27 100.68 27 100 C27.66 100 28.32 100 29 100 C26.79896146 92.95421741 24.3019091 86.23200957 21.171875 79.546875 C17 70.48 17 70.48 17 66 C5.78 66 -5.44 66 -17 66 C-17.99 69.63 -18.98 73.26 -20 77 C-20.8241365 79.06272315 -21.68943065 81.11036907 -22.625 83.125 C-25.10508456 88.84483467 -26 93.75188003 -26 100 C-24.02 100 -22.04 100 -20 100 C-20 100.99 -20 101.98 -20 103 C-30.23 103 -40.46 103 -51 103 C-51 102.01 -51 101.02 -51 100 C-49.1746875 99.9071875 -49.1746875 99.9071875 -47.3125 99.8125 C-44.04348697 99.38585632 -42.9989766 98.99923245 -40.25 96.9375 C-35.08033238 90.18821171 -32.44699459 82.16118724 -29.5625 74.25 C-27.35067738 68.21284367 -25.11619228 62.20473887 -22.61328125 56.28125 C-20.61396791 51.53978933 -18.7360149 46.76459285 -16.9140625 41.953125 C-16.64611374 41.24601379 -16.37816498 40.53890259 -16.10209656 39.81036377 C-15.00085889 36.89946885 -13.90211694 33.98765418 -12.80761719 31.07421875 C-8.85488101 20.56514771 -4.59660981 10.24426843 0 0 Z " fill="#1E63AD" transform="translate(876,554)"/>
<path d="M0 0 C9.90873873 -0.31268055 19.59442174 0.86518724 29.40234375 2.13671875 C30.1119928 2.2280307 30.82164185 2.31934265 31.55279541 2.41342163 C43.76875627 4.00313127 43.76875627 4.00313127 44.96484375 5.19921875 C44.98165464 7.34666775 44.92735598 9.49473827 44.84375 11.640625 C44.79541016 12.94580078 44.74707031 14.25097656 44.69726562 15.59570312 C44.64073544 16.9843795 44.58409334 18.37305132 44.52734375 19.76171875 C44.47413828 21.15427896 44.42139779 22.54685701 44.36914062 23.93945312 C44.23896284 27.35957856 44.10398195 30.77944799 43.96484375 34.19921875 C42.97484375 34.19921875 41.98484375 34.19921875 40.96484375 34.19921875 C40.75988281 33.3071875 40.55492187 32.41515625 40.34375 31.49609375 C40.07433594 30.325625 39.80492187 29.15515625 39.52734375 27.94921875 C39.26050781 26.7890625 38.99367188 25.62890625 38.71875 24.43359375 C38.46996094 23.36625 38.22117187 22.29890625 37.96484375 21.19921875 C37.85011719 20.44125 37.73539062 19.68328125 37.6171875 18.90234375 C37.09938877 17.0352607 37.09938877 17.0352607 35.1953125 16.10546875 C34.45925781 15.80640625 33.72320312 15.50734375 32.96484375 15.19921875 C31.84529297 14.5959375 31.84529297 14.5959375 30.703125 13.98046875 C29.90261719 13.55765625 29.10210937 13.13484375 28.27734375 12.69921875 C27.48972656 12.27640625 26.70210938 11.85359375 25.890625 11.41796875 C18.31653431 8.26294032 10.78097594 7.8396586 2.65234375 7.88671875 C1.6363208 7.8923584 0.62029785 7.89799805 -0.42651367 7.90380859 C-12.90553924 8.10584139 -23.55591019 10.4065441 -33.03515625 19.015625 C-43.84638026 30.54915062 -46.11900598 44.93492266 -46.03515625 60.19921875 C-45.04543422 75.45350596 -39.37951444 89.5953797 -28.6484375 100.66015625 C-15.65136391 111.5852326 -0.95756449 115.90621981 15.8203125 114.98828125 C23.12920081 114.21120787 30.40512043 113.39713795 35.96484375 108.19921875 C39.26727332 103.31488465 41.33000732 97.8468355 42.96484375 92.19921875 C43.62484375 92.19921875 44.28484375 92.19921875 44.96484375 92.19921875 C45.35266484 98.30381 44.8244272 104.12896101 43.71484375 110.13671875 C43.4828125 111.40386719 43.25078125 112.67101562 43.01171875 113.9765625 C41.86910249 117.49394465 41.1615003 118.47242671 37.96484375 120.19921875 C19.13183973 126.84616135 -7.99186232 125.75944324 -26.29101562 117.68603516 C-40.96170498 110.6467514 -52.25740999 99.25962644 -57.91015625 83.88671875 C-63.56177687 67.17513858 -62.81531518 48.71123347 -55.421875 32.70703125 C-47.77948453 17.76115898 -37.08682434 8.61583103 -21.03515625 3.19921875 C-18.05135993 2.33033726 -15.10333272 1.68605118 -12.03515625 1.19921875 C-11.37773437 1.08835937 -10.7203125 0.9775 -10.04296875 0.86328125 C-6.70597995 0.39736206 -3.36072426 0.22058808 0 0 Z " fill="#1E63AD" transform="translate(141.03515625,535.80078125)"/>
<path d="M0 0 C11.55 0 23.1 0 35 0 C34.67 0.99 34.34 1.98 34 3 C31.66666667 3.66666667 29.33333333 4.33333333 27 5 C25.95445802 8.13662595 25.86084349 10.36525782 25.83886719 13.65795898 C25.82925964 14.82024521 25.8196521 15.98253143 25.80975342 17.18003845 C25.80550354 18.4393367 25.80125366 19.69863495 25.796875 20.99609375 C25.78832489 22.9446804 25.78832489 22.9446804 25.77960205 24.93263245 C25.76909437 27.68906036 25.76325205 30.44545918 25.75976562 33.2019043 C25.75432035 36.701701 25.73037801 40.20110083 25.70179367 43.70077419 C25.67844828 47.07003801 25.67670141 50.43925343 25.671875 53.80859375 C25.6595282 55.04967392 25.6471814 56.29075409 25.63446045 57.56944275 C25.6614696 68.28505141 26.73307932 79.56585372 34 88 C40.08329329 93.84831629 46.06632098 95.9474438 54.375 96.3125 C63.14874818 96.02607179 69.72040946 93.41592416 76.0859375 87.3203125 C81.62325023 80.60773339 83.10842428 72.18075228 83.16113281 63.69677734 C83.17074036 62.4455307 83.1803479 61.19428406 83.19024658 59.90512085 C83.19509271 58.54872826 83.19937199 57.19233355 83.203125 55.8359375 C83.20888145 54.437795 83.21463911 53.0396525 83.22039795 51.64151001 C83.23087516 48.7180342 83.23674047 45.79458566 83.24023438 42.87109375 C83.24573826 39.12386255 83.26981977 35.37699119 83.29820633 31.62987328 C83.31681141 28.74570651 83.32203696 25.86162726 83.32357025 22.97740555 C83.32659786 21.59548583 83.3346301 20.2135677 83.34775543 18.831707 C83.36478305 16.90268884 83.36109563 14.9735213 83.35644531 13.04443359 C83.36009094 11.94698822 83.36373657 10.84954285 83.36749268 9.71884155 C83.21314386 7.00326803 83.21314386 7.00326803 81.70819092 5.16519165 C79.0161177 3.32887394 76.18412037 3.30038871 73 3 C73 2.01 73 1.02 73 0 C83.23 0 93.46 0 104 0 C104 0.99 104 1.98 104 3 C101.36 3.33 98.72 3.66 96 4 C95.26809874 7.94707637 94.86943238 11.69489467 94.84228516 15.70727539 C94.82689194 17.35542992 94.82689194 17.35542992 94.81118774 19.03688049 C94.80388641 20.21193649 94.79658508 21.38699249 94.7890625 22.59765625 C94.76098141 25.11654282 94.73231687 27.63542294 94.703125 30.15429688 C94.66200598 34.10147838 94.62509357 38.04854113 94.59863281 41.99584961 C94.57079971 45.82170119 94.52491889 49.64701599 94.4765625 53.47265625 C94.47330963 54.63354263 94.47005676 55.79442902 94.46670532 56.99049377 C94.26689007 70.50936206 91.77919555 83.8260884 82.15234375 93.94140625 C71.59342874 102.59234483 58.28775743 103.45048978 45.21484375 102.81640625 C33.5583042 101.58606421 26.29336041 97.10424833 18.69140625 88.34375 C7.67272934 73.07537553 10.46364965 49.63236523 10.3125 31.875 C10.28081451 29.1627223 10.24494838 26.45050516 10.20898438 23.73828125 C10.12488413 17.15895778 10.05621089 10.57961782 10 4 C7.03 3.67 4.06 3.34 1 3 C0.67 2.01 0.34 1.02 0 0 Z " fill="#1F64AD" transform="translate(415,556)"/>
<path d="M0 0 C11.88 0 23.76 0 36 0 C36 0.99 36 1.98 36 3 C33.69 3 31.38 3 29 3 C30.38508875 10.47623926 32.83399779 17.32758093 35.57592773 24.40991211 C36.30623793 26.29632488 37.02795482 28.18583804 37.74804688 30.07617188 C40.35518912 36.87756757 43.07041924 43.62189455 45.89477539 50.33569336 C47.37361596 53.90065627 48.73415875 57.50182503 50.0625 61.125 C52.05760392 66.51888289 54.12231025 71.87058149 56.3359375 77.1796875 C57 79 57 79 57 81 C57.66 81 58.32 81 59 81 C59.10828125 80.31035156 59.2165625 79.62070312 59.328125 78.91015625 C60.10809598 75.53179356 61.34982437 72.60954736 62.75 69.4375 C63.29729407 68.1837766 63.84416255 66.92986735 64.390625 65.67578125 C64.66326172 65.05396973 64.93589844 64.4321582 65.21679688 63.79150391 C68.82875448 55.52948865 72.11919079 47.16228013 75.24609375 38.70703125 C76.58589815 35.08947994 77.96208517 31.48698219 79.34765625 27.88671875 C79.75467773 26.82163086 80.16169922 25.75654297 80.58105469 24.65917969 C81.38739708 22.54964475 82.19904854 20.44212967 83.01660156 18.33691406 C84.97443882 13.18890388 86.52959047 8.49839332 87 3 C84.69 3 82.38 3 80 3 C80 2.01 80 1.02 80 0 C89.57 0 99.14 0 109 0 C109 0.99 109 1.98 109 3 C107.3603125 3.2165625 107.3603125 3.2165625 105.6875 3.4375 C102.06877013 3.88288104 102.06877013 3.88288104 99 5 C97.91610786 7.20461882 97.91610786 7.20461882 97 10 C95.97591184 12.41286014 94.94635924 14.82283094 93.91015625 17.23046875 C93.28954094 18.67577702 92.66893589 20.12108971 92.04833984 21.56640625 C91.72420105 22.32066895 91.40006226 23.07493164 91.06610107 23.85205078 C85.52911777 36.73699447 80.01486246 49.63056161 74.59008789 62.56323242 C72.1884842 68.26925867 69.70126318 73.92639564 67.11767578 79.55249023 C66.05502259 81.87951039 65.02248271 84.21760631 64 86.5625 C63.33609231 88.04290706 62.66927726 89.52201271 62 91 C61.5978125 91.90621094 61.195625 92.81242188 60.78125 93.74609375 C60.3584375 94.65488281 59.935625 95.56367187 59.5 96.5 C58.92765625 97.75296875 58.92765625 97.75296875 58.34375 99.03125 C57 101 57 101 54.84375 101.78125 C53.93109375 101.88953125 53.93109375 101.88953125 53 102 C44.80120613 86.44092528 38.54900923 69.9682569 31.94458008 53.69116211 C29.0037309 46.44339534 26.02114905 39.21464096 23 32 C22.55696533 30.93257568 22.11393066 29.86515137 21.6574707 28.76538086 C20.28842612 25.48205396 18.89633376 22.20930166 17.5 18.9375 C17.03980469 17.82439453 16.57960938 16.71128906 16.10546875 15.56445312 C15.64785156 14.50033203 15.19023437 13.43621094 14.71875 12.33984375 C14.31591797 11.38456787 13.91308594 10.42929199 13.49804688 9.44506836 C11.69435349 6.5011327 10.10213659 5.46054016 7 4 C3.30476048 3.28076792 3.30476048 3.28076792 0 3 C0 2.01 0 1.02 0 0 Z " fill="#1F64AD" transform="translate(337,724)"/>
<path d="M0 0 C-0.3080144 2.62559844 -0.62120182 5.25039806 -0.9375 7.875 C-1.02451172 8.62136719 -1.11152344 9.36773438 -1.20117188 10.13671875 C-1.88671875 15.7734375 -1.88671875 15.7734375 -3 18 C-3.66 18 -4.32 18 -5 18 C-5.66 15.36 -6.32 12.72 -7 10 C-13.58297365 8.35258238 -19.79233435 7.61422046 -26.5625 7.375 C-29.676875 7.25125 -32.79125 7.1275 -36 7 C-36 19.87 -36 32.74 -36 46 C-31.483125 45.71125 -26.96625 45.4225 -22.3125 45.125 C-20.18808472 44.99569092 -20.18808472 44.99569092 -18.02075195 44.86376953 C-16.89628662 44.78755371 -15.77182129 44.71133789 -14.61328125 44.6328125 C-13.46641846 44.55949707 -12.31955566 44.48618164 -11.13793945 44.41064453 C-7.59978473 44.0794283 -7.59978473 44.0794283 -3 42 C-3.33 48.27 -3.66 54.54 -4 61 C-4.99 61 -5.98 61 -7 61 C-7.268125 59.865625 -7.53625 58.73125 -7.8125 57.5625 C-8.204375 56.386875 -8.59625 55.21125 -9 54 C-11.98296854 53.00567715 -14.41901995 52.71277619 -17.54296875 52.46484375 C-18.61611328 52.37783203 -19.68925781 52.29082031 -20.79492188 52.20117188 C-21.91447266 52.11416016 -23.03402344 52.02714844 -24.1875 51.9375 C-25.31865234 51.84662109 -26.44980469 51.75574219 -27.61523438 51.66210938 C-30.40990736 51.43806386 -33.20481111 51.21749856 -36 51 C-35.88165629 56.48110206 -35.75740112 61.96202634 -35.62768555 67.44287109 C-35.58439567 69.30709192 -35.54271639 71.17135088 -35.50268555 73.03564453 C-35.44483887 75.7165882 -35.38118595 78.397341 -35.31640625 81.078125 C-35.29133751 82.32677338 -35.29133751 82.32677338 -35.26576233 83.60064697 C-35.24581711 84.38115417 -35.22587189 85.16166138 -35.20532227 85.96582031 C-35.18200584 86.99174286 -35.18200584 86.99174286 -35.15821838 88.03839111 C-34.99078184 90.11428773 -34.55834972 91.99674745 -34 94 C-29.0350088 95.29296646 -24.09273092 95.18380962 -19 95.1875 C-18.11054688 95.19974609 -17.22109375 95.21199219 -16.3046875 95.22460938 C-9.91068592 95.26121622 -9.91068592 95.26121622 -4 93 C-1.7308289 89.89039516 -0.3362999 86.59773051 1 83 C1.66 83 2.32 83 3 83 C2.91249445 85.22988284 2.80430939 87.45896005 2.6875 89.6875 C2.60048828 91.54955078 2.60048828 91.54955078 2.51171875 93.44921875 C1.96988992 97.20893179 1.32896148 99.03348201 -1 102 C-3.52470398 102.60127258 -3.52470398 102.60127258 -6.57299805 102.56762695 C-7.71395432 102.5672493 -8.85491058 102.56687164 -10.03044128 102.56648254 C-11.26176285 102.54067612 -12.49308441 102.51486969 -13.76171875 102.48828125 C-15.02264847 102.48120651 -16.28357819 102.47413177 -17.5827179 102.46684265 C-20.93221392 102.44357389 -24.28000669 102.39867107 -27.62902832 102.34332275 C-31.04745775 102.29213652 -34.46606327 102.26933017 -37.88476562 102.24414062 C-44.59031519 102.18895124 -51.29505925 102.10523225 -58 102 C-58 101.01 -58 100.02 -58 99 C-57.05125 98.773125 -56.1025 98.54625 -55.125 98.3125 C-51.91410285 97.33710076 -51.91410285 97.33710076 -50.82086182 94.93240356 C-49.77261178 91.18769027 -49.72074829 87.62441884 -49.74121094 83.76904297 C-49.7377063 82.95383179 -49.73420166 82.13862061 -49.73059082 81.29870605 C-49.721812 78.61311242 -49.72760793 75.92778366 -49.734375 73.2421875 C-49.7330275 71.37321929 -49.73108627 69.50425143 -49.72857666 67.63528442 C-49.72563084 63.72313084 -49.72990662 59.81106872 -49.73925781 55.89892578 C-49.75066782 50.88056116 -49.74407966 45.86241011 -49.73211288 40.84405327 C-49.72489314 36.98709497 -49.72718247 33.1301875 -49.73236847 29.27322769 C-49.73370383 27.42242533 -49.73206121 25.57161838 -49.72740936 23.72082138 C-49.72234054 21.13781207 -49.7300586 18.55515126 -49.74121094 15.97216797 C-49.73716248 15.20534698 -49.73311401 14.438526 -49.72894287 13.64846802 C-49.75908418 9.88758577 -49.85987135 8.21019298 -52 5 C-53.96361864 4.42251197 -53.96361864 4.42251197 -56.125 4.3125 C-57.40375 4.209375 -58.6825 4.10625 -60 4 C-60.33 3.01 -60.66 2.02 -61 1 C-53.27703233 0.85681369 -45.55404917 0.71448676 -37.83105469 0.57275391 C-35.20442344 0.52444879 -32.57779579 0.47594781 -29.95117188 0.42724609 C-26.1731864 0.35723048 -22.39518851 0.28792197 -18.6171875 0.21875 C-16.85905228 0.18593933 -16.85905228 0.18593933 -15.06539917 0.15246582 C-13.964711 0.13244507 -12.86402283 0.11242432 -11.72998047 0.09179688 C-10.76623505 0.07403198 -9.80248962 0.05626709 -8.80953979 0.03796387 C-5.87268716 -0.00172031 -2.93708434 -0.0063784 0 0 Z " fill="#1C62AC" transform="translate(517,723)"/>
<path d="M0 0 C9.9 0 19.8 0 30 0 C29.67 0.99 29.34 1.98 29 3 C28.01 3 27.02 3 26 3 C27.90030161 7.62663195 29.98163191 11.89519696 32.546875 16.203125 C32.88116516 16.76642517 33.21545532 17.32972534 33.55987549 17.91009521 C34.26382012 19.09441706 34.96979934 20.27753177 35.67773438 21.45947266 C36.73766624 23.22940442 37.79125443 25.00298207 38.84375 26.77734375 C45.09346202 38.5153766 45.09346202 38.5153766 53 49 C53.33209473 48.410979 53.66418945 47.82195801 54.00634766 47.21508789 C55.54234123 44.49553216 57.08363692 41.77901579 58.625 39.0625 C59.14707031 38.13630859 59.66914062 37.21011719 60.20703125 36.25585938 C63.19022928 31.00764062 66.32095621 25.93572856 69.70996094 20.94067383 C73.36121472 15.44790012 76.47417768 9.66041606 77 3 C75.68 2.67 74.36 2.34 73 2 C73 1.34 73 0.68 73 0 C82.24 0 91.48 0 101 0 C101 0.66 101 1.32 101 2 C100.40832031 2.15855469 99.81664062 2.31710937 99.20703125 2.48046875 C85.67381966 6.47640888 79.09598228 20.71288876 71.875 32 C70.99630249 33.36983032 70.99630249 33.36983032 70.09985352 34.76733398 C61.79701702 47.86211331 57.82045661 56.10961992 57.8125 71.625 C57.79413086 73.47544922 57.79413086 73.47544922 57.77539062 75.36328125 C57.7639458 82.54299906 58.31734986 89.01666938 60 96 C63.3 96.66 66.6 97.32 70 98 C70 98.99 70 99.98 70 101 C58.45 101 46.9 101 35 101 C35 100.01 35 99.02 35 98 C36.7015625 97.5978125 36.7015625 97.5978125 38.4375 97.1875 C39.613125 96.795625 40.78875 96.40375 42 96 C43.1824476 92.45265721 43.18089931 89.20919729 43.203125 85.515625 C43.20882507 84.78180603 43.21452515 84.04798706 43.22039795 83.29193115 C43.22983868 81.7385807 43.23637825 80.1852103 43.24023438 78.63183594 C43.24990806 76.27242347 43.2809255 73.91389443 43.3125 71.5546875 C43.31903389 70.04167181 43.32428284 68.52864992 43.328125 67.015625 C43.3404718 66.31745667 43.3528186 65.61928833 43.36553955 64.89996338 C43.33609797 58.32224084 40.94776674 53.26231969 37.546875 47.765625 C37.09610596 47.03230957 36.64533691 46.29899414 36.1809082 45.54345703 C35.7087085 44.78661621 35.23650879 44.02977539 34.75 43.25 C34.25910889 42.45577637 33.76821777 41.66155273 33.26245117 40.84326172 C31.84744002 38.55849442 30.42538358 36.27830712 29 34 C28.01193359 32.41832031 28.01193359 32.41832031 27.00390625 30.8046875 C25.35408118 28.19087688 23.68287256 25.59263893 22 23 C21.33097656 21.9584375 20.66195312 20.916875 19.97265625 19.84375 C18.93431641 18.25046875 18.93431641 18.25046875 17.875 16.625 C17.25367188 15.66851563 16.63234375 14.71203125 15.9921875 13.7265625 C11.54808435 7.64424094 7.16943621 4.23049126 0 2 C0 1.34 0 0.68 0 0 Z " fill="#1F64AD" transform="translate(904,724)"/>
<path d="M0 0 C0.89525391 -0.00773438 1.79050781 -0.01546875 2.71289062 -0.0234375 C8.95682751 -0.00540447 14.7410333 0.80984121 20.8125 2.25 C20.83967692 4.31242617 20.8589758 6.37495703 20.875 8.4375 C20.88660156 9.58605469 20.89820313 10.73460937 20.91015625 11.91796875 C20.82442832 14.84300586 20.49099023 17.41316291 19.8125 20.25 C18.8225 20.25 17.8325 20.25 16.8125 20.25 C16.65394531 19.63511719 16.49539063 19.02023437 16.33203125 18.38671875 C14.89647119 13.17827147 14.89647119 13.17827147 11.375 9.25 C4.18292354 6.44333601 -5.04693385 5.59093012 -12.3125 8.5625 C-16.17729426 10.83096619 -17.76609251 11.98577754 -19.1875 16.25 C-19.49677396 18.52601149 -19.49677396 18.52601149 -19.5625 21 C-19.61148438 21.81984375 -19.66046875 22.6396875 -19.7109375 23.484375 C-18.35628969 30.64176791 -12.63506087 34.8345907 -6.9375 38.75 C-5.59959587 39.69958522 -4.26235386 40.65010403 -2.92578125 41.6015625 C-1.96212646 42.2807373 -1.96212646 42.2807373 -0.97900391 42.97363281 C2.07490364 45.14940668 5.02496328 47.45006448 7.9609375 49.78125 C9.61601388 51.09413759 11.30596646 52.36277893 13 53.625 C18.53755774 58.79338723 23.35522708 65.61194611 24.11328125 73.30078125 C24.14361929 81.7448687 23.48921233 87.34964774 18.625 94.4375 C11.01851452 102.04398548 3.08522205 104.49496993 -7.49023438 104.57226562 C-8.48345703 104.56904297 -9.47667969 104.56582031 -10.5 104.5625 C-11.48162109 104.57861328 -12.46324219 104.59472656 -13.47460938 104.61132812 C-20.12893667 104.61573205 -25.97735325 103.71157048 -32.1875 101.25 C-33.73823147 99.69926853 -33.31719128 98.21937747 -33.3203125 96.06640625 C-33.32160156 95.22142578 -33.32289063 94.37644531 -33.32421875 93.50585938 C-33.31841797 92.17264648 -33.31841797 92.17264648 -33.3125 90.8125 C-33.31636719 89.92755859 -33.32023438 89.04261719 -33.32421875 88.13085938 C-33.32228516 86.86145508 -33.32228516 86.86145508 -33.3203125 85.56640625 C-33.31918457 84.78724854 -33.31805664 84.00809082 -33.31689453 83.20532227 C-33.1875 81.25 -33.1875 81.25 -32.1875 79.25 C-31.5275 79.25 -30.8675 79.25 -30.1875 79.25 C-30.05214844 79.97445312 -29.91679688 80.69890625 -29.77734375 81.4453125 C-28.44872786 87.41215033 -27.18037834 91.49403092 -22.140625 95.16796875 C-15.94353884 98.60115448 -8.73957021 99.22762582 -1.859375 97.75 C3.18609694 96.27979626 6.57640041 94.56479946 9.8125 90.25 C12.56534172 83.7432832 11.83439011 77.94452577 10 71.3125 C8.54804209 68.79067837 7.37993163 68.52202442 4.8125 67.25 C3.61402453 66.26670535 2.44903064 65.24178171 1.3125 64.1875 C-2.03234047 61.18524096 -5.50567023 58.47743325 -9.125 55.8125 C-29.00960911 40.96799988 -29.00960911 40.96799988 -31.1875 29.25 C-31.68732744 21.8775453 -30.33971983 15.89221817 -26.5625 9.5 C-23.18185547 6.29728413 -19.3678122 4.25908765 -15.1875 2.25 C-14.12402344 1.69119141 -14.12402344 1.69119141 -13.0390625 1.12109375 C-8.7118172 -0.20079077 -4.49783984 -0.0380367 0 0 Z " fill="#2064AD" transform="translate(685.1875,721.75)"/>
<path d="M0 0 C1.29147949 0.16298584 2.58295898 0.32597168 3.91357422 0.49389648 C11.72049305 1.26945842 19.54720734 1.12362829 27.3828125 1.09765625 C29.05003822 1.09578772 30.7172645 1.09436587 32.38449097 1.09336853 C36.74094193 1.0895776 41.09735877 1.07977715 45.45379639 1.06866455 C49.91190123 1.05837622 54.37001167 1.05385511 58.828125 1.04882812 C67.55209887 1.03815131 76.27604517 1.02111677 85 1 C85.01357234 2.91143853 85.02323065 4.82290511 85.03125 6.734375 C85.03705078 7.79881836 85.04285156 8.86326172 85.04882812 9.95996094 C84.99339561 13.4111895 84.61637407 16.60994263 84 20 C83.34 20 82.68 20 82 20 C81.86464844 19.44570313 81.72929688 18.89140625 81.58984375 18.3203125 C81.37457031 17.59585938 81.15929687 16.87140625 80.9375 16.125 C80.74027344 15.40570312 80.54304687 14.68640625 80.33984375 13.9453125 C78.6597373 11.50597427 77.08904611 11.15320004 74.29225159 10.41696167 C69.43232043 9.53293785 64.48945048 9.5153523 59.5625 9.375 C57.8928418 9.31699219 57.8928418 9.31699219 56.18945312 9.2578125 C53.45979524 9.16409034 50.73013437 9.07837706 48 9 C48.08439024 19.86600539 48.17926866 30.73186377 48.28752708 41.59765911 C48.33746682 46.64312174 48.38379717 51.68856366 48.421875 56.73413086 C48.45875699 61.6036367 48.50512506 66.47296838 48.55806351 71.34232521 C48.57659193 73.19981645 48.59170562 75.05734501 48.60334396 76.9148922 C48.6202329 79.51725462 48.64927439 82.11921953 48.68115234 84.72143555 C48.68331253 85.4889212 48.68547272 86.25640686 48.68769836 87.04714966 C48.75105705 91.09756166 49.01878409 94.4193251 51 98 C53.39115375 99.03343734 53.39115375 99.03343734 56.125 99.3125 C57.03507813 99.45300781 57.94515625 99.59351563 58.8828125 99.73828125 C59.93082031 99.86783203 59.93082031 99.86783203 61 100 C61 100.99 61 101.98 61 103 C49.12 103 37.24 103 25 103 C25 102.01 25 101.02 25 100 C27.64 99.67 30.28 99.34 33 99 C33.94684317 94.18870687 34.16850109 89.49497834 34.20532227 84.60791016 C34.21522186 83.78773407 34.22512146 82.96755798 34.23532104 82.12252808 C34.2667542 79.4280683 34.29162111 76.73359093 34.31640625 74.0390625 C34.3369915 72.16433266 34.35798838 70.2896073 34.37937927 68.41488647 C34.43443769 63.49289589 34.48391822 58.57086455 34.53222656 53.64880371 C34.58256045 48.62130122 34.63818433 43.59385753 34.69335938 38.56640625 C34.80074229 28.7109878 34.90223098 18.85551818 35 9 C30.43677759 9.08095102 25.87488408 9.1937929 21.3125 9.3125 C20.01892578 9.33505859 18.72535156 9.35761719 17.39257812 9.38085938 C16.14541016 9.41630859 14.89824219 9.45175781 13.61328125 9.48828125 C12.46641846 9.51446533 11.31955566 9.54064941 10.13793945 9.56762695 C6.68194894 10.04382389 4.78063731 10.92481896 2 13 C0.96642853 14.64605826 -0.04060332 16.30963442 -1 18 C-1.66 18 -2.32 18 -3 18 C-2.51679152 11.7945858 -1.66681876 6.00054754 0 0 Z " fill="#1F64AD" transform="translate(802,722)"/>
<path d="M0 0 C11.88 0 23.76 0 36 0 C35.67 0.99 35.34 1.98 35 3 C33.329375 3.185625 33.329375 3.185625 31.625 3.375 C27.96896323 3.6465813 27.96896323 3.6465813 26 6 C25.80163529 8.56340268 25.72722554 11.01875855 25.74121094 13.58325195 C25.7377063 14.36555176 25.73420166 15.14785156 25.73059082 15.95385742 C25.72176448 18.54875477 25.72762747 21.14338095 25.734375 23.73828125 C25.7330282 25.53948519 25.73108754 27.34068878 25.72857666 29.14189148 C25.72562384 32.92234752 25.72992658 36.7027092 25.73925781 40.4831543 C25.75062795 45.32541362 25.74410938 50.16745065 25.73211288 55.00970173 C25.72487761 58.73206753 25.72719031 62.45438087 25.73236847 66.17674828 C25.73370162 67.96170261 25.73206895 69.74666173 25.72740936 71.53161049 C25.72231949 74.03072289 25.73008997 76.52947854 25.74121094 79.02856445 C25.73716248 79.7648558 25.73311401 80.50114716 25.72894287 81.25975037 C25.76183079 85.25745273 26.06921714 88.46087968 28 92 C33.24407462 94.78171266 39.20666497 94.33170867 45 94.3125 C46.45792969 94.33666992 46.45792969 94.33666992 47.9453125 94.36132812 C53.29825198 94.36497454 57.51583948 94.27300463 62 91 C63.33476999 88.78819221 63.33476999 88.78819221 63.875 86.3125 C64.09929687 85.50425781 64.32359375 84.69601562 64.5546875 83.86328125 C64.70164062 83.24839844 64.84859375 82.63351562 65 82 C65.99 82 66.98 82 68 82 C67.88534579 84.22972273 67.75785234 86.45878753 67.625 88.6875 C67.55539062 89.92886719 67.48578125 91.17023438 67.4140625 92.44921875 C67 96 67 96 65 101 C44.21 101 23.42 101 2 101 C2 100.01 2 99.02 2 98 C5.465 97.01 5.465 97.01 9 96 C10.53890616 90.5402344 11.28834207 85.59097857 11.24291992 79.90332031 C11.24576744 78.75540764 11.24576744 78.75540764 11.24867249 77.58430481 C11.25234474 75.08213701 11.2417298 72.5802665 11.23046875 70.078125 C11.22927514 68.32794224 11.22882417 66.57775883 11.2290802 64.82757568 C11.22752164 61.17293241 11.21927776 57.51838796 11.20581055 53.86376953 C11.18877124 49.18081653 11.18499803 44.49797138 11.18575573 39.814991 C11.18548387 36.20677665 11.18000095 32.59858585 11.17275429 28.99037933 C11.16957498 27.26321338 11.16760194 25.53604476 11.16686058 23.80887604 C11.16469205 21.3989049 11.15593813 18.98904811 11.14526367 16.57910156 C11.14571686 15.86734268 11.14617004 15.1555838 11.14663696 14.42225647 C11.12537136 11.13813912 11.01031946 8.14115049 10 5 C9.36191406 4.89042969 8.72382813 4.78085937 8.06640625 4.66796875 C7.24011719 4.50941406 6.41382813 4.35085938 5.5625 4.1875 C4.73878906 4.03667969 3.91507812 3.88585937 3.06640625 3.73046875 C2.38449219 3.48941406 1.70257813 3.24835937 1 3 C0.67 2.01 0.34 1.02 0 0 Z " fill="#1C62AC" transform="translate(336,556)"/>
<path d="M0 0 C10.56 0 21.12 0 32 0 C31.67 0.99 31.34 1.98 31 3 C27.4375 4.1875 27.4375 4.1875 24 5 C23.97685387 16.42195869 23.95907329 27.84391182 23.94818783 39.26588917 C23.94296399 44.56927632 23.93587534 49.87264746 23.92456055 55.17602539 C23.91371401 60.29180242 23.9077194 65.40756403 23.90512276 70.52335167 C23.90327171 72.47742646 23.8996572 74.43150038 23.89426994 76.38556862 C23.88703612 79.11749742 23.88601006 81.84936203 23.88647461 84.58129883 C23.88287933 85.39337799 23.87928406 86.20545715 23.87557983 87.04214478 C23.88157933 90.29169423 23.96484562 92.89453685 25 96 C28.3 96.66 31.6 97.32 35 98 C35 98.99 35 99.98 35 101 C23.45 101 11.9 101 0 101 C0 100.01 0 99.02 0 98 C3.465 97.01 3.465 97.01 7 96 C8.13149691 91.48833867 8.13440157 87.06538176 8.11352539 82.44604492 C8.11367142 81.59675415 8.11381744 80.74746338 8.1139679 79.87243652 C8.11327319 77.07508763 8.10550149 74.27780596 8.09765625 71.48046875 C8.0957905 69.5370538 8.09436734 67.59363837 8.09336853 65.65022278 C8.08955571 60.54239599 8.07973597 55.43459776 8.06866455 50.32678223 C8.05842387 45.11173896 8.05386522 39.89669106 8.04882812 34.68164062 C8.0381126 24.45441455 8.02105101 14.22720965 8 4 C5.36 3.67 2.72 3.34 0 3 C0 2.01 0 1.02 0 0 Z " fill="#2266AE" transform="translate(777,556)"/>
<path d="M0 0 C11.22774661 -0.12276725 20.14647019 0.35376971 29 8 C35.40266191 14.94923061 36.46855482 22.33187707 36.3125 31.578125 C35.89804035 36.11645816 34.91059285 39.46634447 32 43 C24.76587189 48.75777544 17.93482145 48.54333374 9 48 C5.92765693 47.41146675 4.65286151 46.80876921 2 45 C-0.28915079 39.97157909 -0.2631874 35.28850218 -0.1953125 29.8828125 C-0.1924826 29.02565643 -0.18965271 28.16850037 -0.18673706 27.28536987 C-0.17559999 24.56510068 -0.1505076 21.84516859 -0.125 19.125 C-0.11496182 17.27344228 -0.10583744 15.42187936 -0.09765625 13.5703125 C-0.07568188 9.0467464 -0.041197 4.52343023 0 0 Z " fill="#FCFDFE" transform="translate(706,604)"/>
<path d="M0 0 C10.89 0 21.78 0 33 0 C32.67 0.99 32.34 1.98 32 3 C29.67793475 3.70491267 27.34406932 4.37212429 25 5 C23.47768213 8.04463573 23.86146033 11.21183291 23.87060547 14.55151367 C23.86885315 15.33060089 23.86710083 16.10968811 23.86529541 16.91238403 C23.86088131 19.49760137 23.86381476 22.08275067 23.8671875 24.66796875 C23.86651399 26.46438103 23.86554357 28.26079323 23.86428833 30.0572052 C23.86281168 33.8292426 23.86496361 37.60125636 23.86962891 41.37329102 C23.87530571 46.19735965 23.87206003 51.0213724 23.86605644 55.84543896 C23.86243246 59.5592948 23.86359821 63.27313754 23.86618423 66.98699379 C23.86684949 68.76471272 23.86603916 70.54243285 23.86370468 72.32015038 C23.86115029 74.81396986 23.86505877 77.30770074 23.87060547 79.80151367 C23.86858124 80.53061447 23.86655701 81.25971527 23.86447144 82.01091003 C23.88255583 86.42505257 24.05711738 90.68037108 25 95 C27.90092502 96.93395001 28.89674737 97.30131941 32.1875 97.625 C34.0746875 97.810625 34.0746875 97.810625 36 98 C36 98.99 36 99.98 36 101 C24.45 101 12.9 101 1 101 C1 100.01 1 99.02 1 98 C1.969375 97.71125 2.93875 97.4225 3.9375 97.125 C7.10664203 96.35785318 7.10664203 96.35785318 8 94 C9.35976643 85.27488219 9.16399267 76.47851168 9.16796875 67.671875 C9.17118688 65.99277722 9.17455136 64.31367972 9.17805481 62.63458252 C9.18401485 59.13138172 9.18589768 55.6282055 9.18530273 52.125 C9.18520069 47.64055394 9.19891029 43.1562647 9.21607494 38.67185593 C9.22719413 35.21115393 9.22922205 31.75049006 9.22869301 28.28977203 C9.22987103 26.63599349 9.23428282 24.9822139 9.24202538 23.32845306 C9.25183408 21.01931176 9.24894506 18.71051414 9.24291992 16.40136719 C9.24434494 15.08948425 9.24576996 13.77760132 9.24723816 12.42596436 C9.00747369 9.10356251 8.64924606 6.8855418 7 4 C3.46485707 2.62032476 3.46485707 2.62032476 0 2 C0 1.34 0 0.68 0 0 Z " fill="#1C62AC" transform="translate(737,724)"/>
<path d="M0 0 C10.89 0 21.78 0 33 0 C32.67 0.99 32.34 1.98 32 3 C28.4375 4.1875 28.4375 4.1875 25 5 C23.80093067 8.76484264 23.87298515 12.35724823 23.87060547 16.2878418 C23.86885315 17.01524063 23.86710083 17.74263947 23.86529541 18.49208069 C23.86089836 20.8944844 23.86380888 23.29681429 23.8671875 25.69921875 C23.86651348 27.37588007 23.86554263 29.05254129 23.86428833 30.72920227 C23.86281396 34.24550302 23.86495621 37.76177837 23.86962891 41.27807617 C23.87530404 45.76559079 23.87205964 50.2530453 23.86605644 54.74055767 C23.86242499 58.20571842 23.86360162 61.67086518 23.86618423 65.13602638 C23.86684751 66.78928446 23.8660462 68.44254385 23.86370468 70.0958004 C22.76966646 83.66197584 22.76966646 83.66197584 26.4147644 95.69316101 C28.38176662 97.31472136 29.66902516 97.48106764 32.1875 97.6875 C33.445625 97.790625 34.70375 97.89375 36 98 C36 98.99 36 99.98 36 101 C24.45 101 12.9 101 1 101 C1 100.01 1 99.02 1 98 C4.465 97.505 4.465 97.505 8 97 C8.73765981 91.21011414 9.14899111 85.53293519 9.14526367 79.69799805 C9.14862228 78.92282333 9.1519809 78.14764862 9.15544128 77.34898376 C9.16484107 74.81987859 9.166888 72.29084024 9.16796875 69.76171875 C9.17118616 67.99054437 9.1745506 66.21937025 9.17805481 64.44819641 C9.1840165 60.75248599 9.18589748 57.05679887 9.18530273 53.36108398 C9.18520063 48.62543821 9.19891546 43.88994075 9.21607494 39.15433025 C9.2271822 35.50408743 9.22922243 31.85388081 9.22869301 28.20362282 C9.22987263 26.45691219 9.23429343 24.71020061 9.24202538 22.9635067 C9.25181071 20.52724027 9.24895438 18.09130086 9.24291992 15.6550293 C9.25134918 14.57572144 9.25134918 14.57572144 9.25994873 13.47460938 C9.23186857 8.40472508 9.23186857 8.40472508 7 4 C3.45411499 2.70079254 3.45411499 2.70079254 0 2 C0 1.34 0 0.68 0 0 Z " fill="#1F64AD" transform="translate(286,724)"/>
<path d="M0 0 C5.92894521 4.82821276 8.50319205 11.22512357 9.28125 18.703125 C9.58917158 27.88945207 7.63022693 34.7909947 1.5 41.6875 C-2.1282315 44.86220257 -6.84271042 44.18367205 -11.375 44.1875 C-12.13039063 44.19974609 -12.88578125 44.21199219 -13.6640625 44.22460938 C-14.40140625 44.22654297 -15.13875 44.22847656 -15.8984375 44.23046875 C-16.89883057 44.23663208 -16.89883057 44.23663208 -17.91943359 44.24291992 C-20 44 -20 44 -25 42 C-25 27.15 -25 12.3 -25 -3 C-16.20397183 -5.19900704 -7.89839686 -4.68361077 0 0 Z " fill="#FCFDFE" transform="translate(595,733)"/>
<path d="M0 0 C5.0978412 1.97520857 9.16702367 5.31469299 12 10 C14.40933035 16.76907099 15.00370183 23.65985164 11.91796875 30.34375 C9.86185932 33.77266966 8.37572935 35.74951376 5 38 C2.9152832 38.22705078 2.9152832 38.22705078 0.55078125 38.1953125 C-0.21322998 38.19031738 -0.97724121 38.18532227 -1.7644043 38.18017578 C-2.72902588 38.16196777 -3.69364746 38.14375977 -4.6875 38.125 C-7.760625 38.08375 -10.83375 38.0425 -14 38 C-14 25.79 -14 13.58 -14 1 C-9.78044042 -1.10977979 -4.58137905 -0.51095581 0 0 Z " fill="#FCFDFD" transform="translate(720,561)"/>
<path d="M0 0 C2.8123844 1.4061922 2.93722145 2.96907837 4.0234375 5.890625 C4.405 6.9115625 4.7865625 7.9325 5.1796875 8.984375 C5.57414063 10.06203125 5.96859375 11.1396875 6.375 12.25 C6.76171875 13.28125 7.1484375 14.3125 7.546875 15.375 C10.32329981 22.86575687 12.63892557 30.32650809 15 38 C5.76 38 -3.48 38 -13 38 C-11.73677018 32.3154658 -10.58236177 27.40482853 -8.65234375 22.03125 C-8.21212891 20.80148437 -7.77191406 19.57171875 -7.31835938 18.3046875 C-6.97840942 17.36834473 -6.97840942 17.36834473 -6.6315918 16.41308594 C-5.92958023 14.4781712 -5.23668686 12.54016138 -4.54492188 10.6015625 C-1.13899928 1.13899928 -1.13899928 1.13899928 0 0 Z " fill="#F7F9FC" transform="translate(875,576)"/>
<path d="M0 0 C1.65 0 3.3 0 5 0 C5 0.33 5 0.66 5 1 C14.9 1.33 24.8 1.66 35 2 C35 2.33 35 2.66 35 3 C23.45 3 11.9 3 0 3 C0 2.01 0 1.02 0 0 Z " fill="#3674B5" transform="translate(777,654)"/>
<path d="M0 0 C0 0.99 0 1.98 0 3 C7.26 3.33 14.52 3.66 22 4 C22 4.33 22 4.66 22 5 C12.43 5 2.86 5 -7 5 C-7 4.34 -7 3.68 -7 3 C-4.69 2.01 -2.38 1.02 0 0 Z " fill="#3875B6" transform="translate(691,652)"/>
<path d="M0 0 C1.98 0 3.96 0 6 0 C6 0.33 6 0.66 6 1 C14.25 1.33 22.5 1.66 31 2 C31 2.33 31 2.66 31 3 C20.77 3 10.54 3 0 3 C0 2.01 0 1.02 0 0 Z " fill="#3A77B7" transform="translate(825,654)"/>
<path d="M0 0 C1.65 0 3.3 0 5 0 C5 0.33 5 0.66 5 1 C12.92 1.33 20.84 1.66 29 2 C29 2.33 29 2.66 29 3 C19.43 3 9.86 3 0 3 C0 2.01 0 1.02 0 0 Z " fill="#3A77B6" transform="translate(529,654)"/>
<path d="M0 0 C1.65 0.33 3.3 0.66 5 1 C5 1.66 5 2.32 5 3 C0.38 3 -4.24 3 -9 3 C-9 2.67 -9 2.34 -9 2 C-4.545 1.505 -4.545 1.505 0 1 C0 0.67 0 0.34 0 0 Z " fill="#417BB9" transform="translate(181,822)"/>
<path d="M0 0 C1.65 0 3.3 0 5 0 C5 0.33 5 0.66 5 1 C7.64 1.33 10.28 1.66 13 2 C13 2.33 13 2.66 13 3 C8.71 3 4.42 3 0 3 C0 2.01 0 1.02 0 0 Z " fill="#3B77B7" transform="translate(338,654)"/>
<path d="M0 0 C1.65 0 3.3 0 5 0 C5 0.33 5 0.66 5 1 C7.31 1.33 9.62 1.66 12 2 C12 2.33 12 2.66 12 3 C8.04 3 4.08 3 0 3 C0 2.01 0 1.02 0 0 Z " fill="#3975B6" transform="translate(153,822)"/>
</svg>
